<svg xmlns="http://www.w3.org/2000/svg" viewBox="0 0 1200 1600">
  <defs>
    <clipPath id="corte">
      <path d="M470 640c60 50 200 50 260 0l170 50 200 210-110 130-85-70 10 600c-210 40-420 40-630 0l10-600-85 70-110-130 200-210z"/>
    </clipPath>
    <linearGradient id="pano" x1="0" y1="0" x2="1" y2="0">
      <stop offset="0" stop-color="#FFFFFF"/>
      <stop offset=".55" stop-color="#F1F1F1"/>
      <stop offset="1" stop-color="#C9C9CF"/>
    </linearGradient>
  </defs>
  <g transform="rotate(4 600 1100)">
    <g clip-path="url(#corte)">
      <rect x="0" y="600" width="1200" height="1000" fill="url(#pano)"/>
      <path d="M100 900l200-210 10 300zM1100 900l-200-210-10 300z" fill="#000" opacity=".06"/>
      <path d="M210 1030l-110-130 34-30 110 130zM990 1030l110-130-34-30-110 130z" fill="#111111"/>
      <path d="M296 990l-14 580M904 990l14 580" stroke="#111111" stroke-width="22"/>
      <path d="M380 760c40 300 20 560-10 800M820 760c-40 300-20 560 10 800" stroke="#000" stroke-width="40" opacity=".06" fill="none"/>
      <path d="M560 1000c10 200 60 380 40 560" stroke="#000" stroke-width="26" opacity=".05" fill="none"/>
    </g>
    <path d="M470 640c60 50 200 50 260 0l20 18c-60 84-240 84-300 0z" fill="#111111"/>
    <path d="M540 700l60 70 60-70" fill="none" stroke="#111111" stroke-width="24" stroke-linejoin="round"/>
  </g>
</svg>
